<svg width="74" height="96" viewBox="0 0 74 96" fill="none" xmlns="http://www.w3.org/2000/svg">
<path d="M36.6801 0V96M0 32.9945H73.7112" stroke="#231722" stroke-width="8.42413"/>
<path d="M35.4646 92.1389C33.5412 92.1389 31.4117 91.8985 29.0761 91.4177C26.7406 91.0056 24.508 90.3187 22.3785 89.3571C20.3177 88.3955 18.6004 87.0905 17.2266 85.442C15.9214 83.7249 15.2688 81.63 15.2688 79.1573C15.2688 77.7836 15.4405 76.3412 15.784 74.8301C16.1275 73.319 16.574 72.0826 17.1235 71.121H19.4934C19.7682 76.3412 21.4855 80.4623 24.6454 83.4845C27.8053 86.5067 31.8239 88.0178 36.7011 88.0178C40.067 88.0178 42.7461 87.3996 44.7382 86.1633C46.799 84.9269 48.2759 83.3471 49.1689 81.4239C50.1306 79.432 50.6114 77.3371 50.6114 75.1392C50.6114 71.9796 49.8215 69.4039 48.2415 67.412C46.6616 65.3514 44.6008 63.6343 42.0591 62.2605C39.5862 60.8181 36.9415 59.4788 34.1251 58.2424C31.3774 56.9374 28.7327 55.495 26.191 53.9152C23.7181 52.3354 21.6916 50.3779 20.1117 48.0425C18.5317 45.7072 17.7418 42.7537 17.7418 39.1821C17.7418 35.473 18.6691 32.2448 20.5238 29.4973C22.3785 26.6812 24.9889 24.4833 28.3549 22.9035C31.7208 21.3237 35.6707 20.5338 40.2044 20.5338C44.1886 20.5338 47.4516 20.8429 49.9932 21.4611C52.6035 22.0792 54.6987 22.6974 56.2786 23.3156V38.2548H53.9087C53.4966 33.8589 52.1914 30.4933 49.9932 28.158C47.795 25.8226 44.2917 24.655 39.4832 24.655C36.1172 24.655 33.3695 25.2045 31.24 26.3034C29.1792 27.3337 27.6679 28.7074 26.7062 30.4246C25.8132 32.0731 25.3667 33.8245 25.3667 35.6791C25.3667 38.4265 26.1567 40.6931 27.7366 42.479C29.3166 44.2648 31.343 45.8102 33.816 47.1153C36.3576 48.4203 39.0366 49.7253 41.8531 51.0304C44.7382 52.3354 47.4172 53.8465 49.8902 55.5637C52.4318 57.2808 54.4926 59.4101 56.0726 61.9515C57.6525 64.4928 58.4425 67.7211 58.4425 71.6362C58.4425 75.8947 57.4464 79.5694 55.4543 82.6603C53.5309 85.6824 50.8175 88.0178 47.3142 89.6662C43.8795 91.3147 39.9297 92.1389 35.4646 92.1389Z" fill="#CCC16E"/>
<mask id="mask0_77_48" style="mask-type:alpha" maskUnits="userSpaceOnUse" x="0" y="0" width="74" height="96">
<path d="M36.6801 0V96M0 32.9945H73.7112" stroke="#231722" stroke-width="8.42413"/>
</mask>
<g mask="url(#mask0_77_48)">
<rect x="32.468" y="4.38757" width="8.42413" height="70.5521" fill="#231722"/>
</g>
</svg>
