<svg width="194" height="96" viewBox="0 0 194 96" fill="none" xmlns="http://www.w3.org/2000/svg">
<path d="M36.6801 0V96M0 32.9945H73.7112" stroke="#231722" stroke-width="8.42413"/>
<path d="M35.4646 92.1389C33.5412 92.1389 31.4117 91.8985 29.0761 91.4177C26.7406 91.0056 24.508 90.3187 22.3785 89.3571C20.3177 88.3955 18.6004 87.0905 17.2266 85.442C15.9214 83.7249 15.2688 81.63 15.2688 79.1573C15.2688 77.7836 15.4405 76.3412 15.784 74.8301C16.1275 73.319 16.574 72.0826 17.1235 71.121H19.4934C19.7682 76.3412 21.4855 80.4623 24.6454 83.4845C27.8053 86.5067 31.8239 88.0178 36.7011 88.0178C40.067 88.0178 42.7461 87.3996 44.7382 86.1633C46.799 84.9269 48.2759 83.3471 49.1689 81.4239C50.1306 79.432 50.6114 77.3371 50.6114 75.1392C50.6114 71.9796 49.8215 69.4039 48.2415 67.412C46.6616 65.3514 44.6008 63.6343 42.0591 62.2605C39.5862 60.8181 36.9415 59.4788 34.1251 58.2424C31.3774 56.9374 28.7327 55.495 26.191 53.9152C23.7181 52.3354 21.6916 50.3779 20.1117 48.0425C18.5317 45.7072 17.7418 42.7537 17.7418 39.1821C17.7418 35.473 18.6691 32.2448 20.5238 29.4973C22.3785 26.6812 24.9889 24.4833 28.3549 22.9035C31.7208 21.3237 35.6707 20.5338 40.2044 20.5338C44.1886 20.5338 47.4516 20.8429 49.9932 21.4611C52.6035 22.0792 54.6987 22.6974 56.2786 23.3156V38.2548H53.9087C53.4966 33.8589 52.1914 30.4933 49.9932 28.158C47.795 25.8226 44.2917 24.655 39.4832 24.655C36.1172 24.655 33.3695 25.2045 31.24 26.3034C29.1792 27.3337 27.6679 28.7074 26.7062 30.4246C25.8132 32.0731 25.3667 33.8245 25.3667 35.6791C25.3667 38.4265 26.1567 40.6931 27.7366 42.479C29.3166 44.2648 31.343 45.8102 33.816 47.1153C36.3576 48.4203 39.0366 49.7253 41.8531 51.0304C44.7382 52.3354 47.4172 53.8465 49.8902 55.5637C52.4318 57.2808 54.4926 59.4101 56.0726 61.9515C57.6525 64.4928 58.4425 67.7211 58.4425 71.6362C58.4425 75.8947 57.4464 79.5694 55.4543 82.6603C53.5309 85.6824 50.8175 88.0178 47.3142 89.6662C43.8795 91.3147 39.9297 92.1389 35.4646 92.1389Z" fill="#CCC16E"/>
<mask id="mask0_77_47" style="mask-type:alpha" maskUnits="userSpaceOnUse" x="0" y="0" width="74" height="96">
<path d="M36.6801 0V96M0 32.9945H73.7112" stroke="#231722" stroke-width="8.42413"/>
</mask>
<g mask="url(#mask0_77_47)">
<rect x="32.468" y="4.38757" width="8.42413" height="70.5521" fill="#231722"/>
</g>
<path d="M98.2792 42.836C96.8605 42.836 95.6005 42.584 94.4992 42.08C93.3978 41.576 92.5392 40.8573 91.9232 39.924C91.3072 38.9907 90.9898 37.88 90.9712 36.592H94.5272C94.5272 37.2453 94.6765 37.8333 94.9752 38.356C95.2925 38.86 95.7218 39.2613 96.2632 39.56C96.8232 39.8587 97.4952 40.008 98.2792 40.008C98.9512 40.008 99.5298 39.9053 100.015 39.7C100.519 39.476 100.902 39.168 101.163 38.776C101.443 38.3653 101.583 37.8893 101.583 37.348C101.583 36.732 101.434 36.228 101.135 35.836C100.855 35.4253 100.463 35.08 99.9592 34.8C99.4552 34.52 98.8765 34.2773 98.2232 34.072C97.5698 33.848 96.8792 33.6147 96.1512 33.372C94.6018 32.8493 93.4352 32.1867 92.6512 31.384C91.8672 30.5627 91.4752 29.4707 91.4752 28.108C91.4752 26.9693 91.7458 25.9893 92.2872 25.168C92.8285 24.3467 93.5845 23.712 94.5552 23.264C95.5445 22.7973 96.6832 22.564 97.9712 22.564C99.2778 22.564 100.417 22.7973 101.387 23.264C102.377 23.7307 103.151 24.384 103.711 25.224C104.29 26.0453 104.589 27.0347 104.607 28.192H101.023C101.005 27.7067 100.874 27.2587 100.631 26.848C100.389 26.4187 100.034 26.0733 99.5672 25.812C99.1192 25.532 98.5685 25.392 97.9152 25.392C97.3552 25.3733 96.8512 25.4667 96.4032 25.672C95.9738 25.8587 95.6285 26.1387 95.3672 26.512C95.1245 26.8667 95.0032 27.3147 95.0032 27.856C95.0032 28.3787 95.1152 28.8173 95.3392 29.172C95.5818 29.508 95.9272 29.7973 96.3752 30.04C96.8232 30.264 97.3458 30.4787 97.9432 30.684C98.5405 30.8893 99.1938 31.1133 99.9032 31.356C100.874 31.6733 101.751 32.0653 102.535 32.532C103.338 32.98 103.973 33.568 104.439 34.296C104.906 35.024 105.139 35.9667 105.139 37.124C105.139 38.132 104.878 39.0747 104.355 39.952C103.833 40.8107 103.067 41.5107 102.059 42.052C101.051 42.5747 99.7912 42.836 98.2792 42.836ZM113.782 42.836C112.382 42.836 111.15 42.5373 110.086 41.94C109.022 41.324 108.192 40.4653 107.594 39.364C106.997 38.2627 106.698 36.9933 106.698 35.556C106.698 34.0627 106.988 32.756 107.566 31.636C108.164 30.516 108.994 29.6387 110.058 29.004C111.141 28.3693 112.392 28.052 113.81 28.052C115.192 28.052 116.396 28.36 117.422 28.976C118.449 29.592 119.242 30.4227 119.802 31.468C120.362 32.4947 120.642 33.652 120.642 34.94C120.642 35.1267 120.642 35.332 120.642 35.556C120.642 35.78 120.624 36.0133 120.586 36.256H109.106V34.1H117.254C117.217 33.0733 116.872 32.2707 116.218 31.692C115.565 31.0947 114.753 30.796 113.782 30.796C113.092 30.796 112.457 30.9547 111.878 31.272C111.3 31.5893 110.842 32.0653 110.506 32.7C110.17 33.316 110.002 34.1 110.002 35.052V35.864C110.002 36.7413 110.161 37.4973 110.478 38.132C110.814 38.7667 111.262 39.252 111.822 39.588C112.401 39.9053 113.045 40.064 113.754 40.064C114.538 40.064 115.182 39.896 115.686 39.56C116.209 39.224 116.592 38.776 116.834 38.216H120.25C119.989 39.0933 119.56 39.8867 118.962 40.596C118.365 41.2867 117.628 41.8373 116.75 42.248C115.873 42.64 114.884 42.836 113.782 42.836ZM122.625 42.5V22.34H125.985V42.5H122.625ZM128.614 42.5V22.34H131.974V30.572C132.441 29.8067 133.075 29.2 133.878 28.752C134.681 28.2853 135.586 28.052 136.594 28.052C137.751 28.052 138.731 28.2947 139.534 28.78C140.337 29.2467 140.943 29.9467 141.354 30.88C141.783 31.7947 141.998 32.9427 141.998 34.324V42.5H138.666V34.632C138.666 33.4187 138.405 32.4947 137.882 31.86C137.378 31.2253 136.603 30.908 135.558 30.908C134.886 30.908 134.279 31.076 133.738 31.412C133.197 31.7293 132.767 32.196 132.45 32.812C132.133 33.4093 131.974 34.1467 131.974 35.024V42.5H128.614ZM149.683 42.836C148.544 42.836 147.564 42.612 146.743 42.164C145.94 41.6973 145.324 41.0067 144.895 40.092C144.466 39.1587 144.251 38.0107 144.251 36.648V28.388H147.611V36.312C147.611 37.5253 147.863 38.4493 148.367 39.084C148.89 39.7 149.674 40.008 150.719 40.008C151.391 40.008 151.988 39.8493 152.511 39.532C153.052 39.2147 153.472 38.7573 153.771 38.16C154.088 37.544 154.247 36.7973 154.247 35.92V28.388H157.607V42.5H154.639L154.387 40.148C153.958 40.9693 153.332 41.6227 152.511 42.108C151.708 42.5933 150.766 42.836 149.683 42.836ZM160.225 42.5V28.388H163.221L163.529 31.02C163.865 30.404 164.285 29.8813 164.789 29.452C165.293 29.004 165.881 28.6587 166.553 28.416C167.244 28.1733 168 28.052 168.821 28.052V31.608H167.645C167.085 31.608 166.553 31.6827 166.049 31.832C165.545 31.9627 165.107 32.1867 164.733 32.504C164.379 32.8027 164.099 33.2227 163.893 33.764C163.688 34.2867 163.585 34.9493 163.585 35.752V42.5H160.225ZM175.862 42.836C174.612 42.836 173.52 42.64 172.586 42.248C171.672 41.8373 170.944 41.2773 170.402 40.568C169.88 39.84 169.572 39.0093 169.478 38.076H172.838C172.932 38.468 173.1 38.832 173.342 39.168C173.585 39.4853 173.912 39.7373 174.322 39.924C174.752 40.1107 175.256 40.204 175.834 40.204C176.394 40.204 176.852 40.1293 177.206 39.98C177.561 39.812 177.822 39.5973 177.99 39.336C178.158 39.0747 178.242 38.7947 178.242 38.496C178.242 38.048 178.121 37.7027 177.878 37.46C177.636 37.2173 177.281 37.0307 176.814 36.9C176.366 36.7507 175.825 36.6107 175.19 36.48C174.518 36.3493 173.865 36.1907 173.23 36.004C172.614 35.7987 172.054 35.5467 171.55 35.248C171.065 34.9493 170.673 34.5667 170.374 34.1C170.094 33.6333 169.954 33.064 169.954 32.392C169.954 31.5707 170.169 30.8333 170.598 30.18C171.046 29.5267 171.681 29.0133 172.502 28.64C173.342 28.248 174.341 28.052 175.498 28.052C177.141 28.052 178.448 28.4347 179.418 29.2C180.408 29.9467 180.986 31.0013 181.154 32.364H177.962C177.869 31.8413 177.608 31.44 177.178 31.16C176.749 30.8613 176.18 30.712 175.47 30.712C174.742 30.712 174.182 30.852 173.79 31.132C173.417 31.3933 173.23 31.748 173.23 32.196C173.23 32.476 173.342 32.7373 173.566 32.98C173.809 33.204 174.154 33.4 174.602 33.568C175.05 33.7173 175.601 33.8667 176.254 34.016C177.3 34.2213 178.224 34.464 179.026 34.744C179.829 35.024 180.464 35.4347 180.93 35.976C181.397 36.5173 181.63 37.2827 181.63 38.272C181.649 39.168 181.416 39.9613 180.93 40.652C180.464 41.3427 179.801 41.884 178.942 42.276C178.084 42.6493 177.057 42.836 175.862 42.836ZM189.41 42.5C188.458 42.5 187.628 42.3507 186.918 42.052C186.228 41.7533 185.686 41.2587 185.294 40.568C184.902 39.8773 184.706 38.944 184.706 37.768V31.216H182.298V28.388H184.706L185.098 24.664H188.066V28.388H191.902V31.216H188.066V37.768C188.066 38.4773 188.216 38.972 188.514 39.252C188.832 39.5133 189.354 39.644 190.082 39.644H191.818V42.5H189.41ZM100.407 73.836C98.4658 73.836 96.7858 73.416 95.3672 72.576C93.9672 71.7173 92.8845 70.532 92.1192 69.02C91.3725 67.4893 90.9992 65.7253 90.9992 63.728C90.9992 61.712 91.3725 59.948 92.1192 58.436C92.8845 56.9053 93.9672 55.7107 95.3672 54.852C96.7858 53.9933 98.4658 53.564 100.407 53.564C102.741 53.564 104.645 54.1427 106.119 55.3C107.594 56.4387 108.527 58.0533 108.919 60.144H105.223C104.962 59.0427 104.43 58.1747 103.627 57.54C102.825 56.9053 101.742 56.588 100.379 56.588C99.1472 56.588 98.0832 56.8773 97.1872 57.456C96.3098 58.016 95.6285 58.8373 95.1432 59.92C94.6765 60.984 94.4432 62.2533 94.4432 63.728C94.4432 65.2027 94.6765 66.472 95.1432 67.536C95.6285 68.5813 96.3098 69.3933 97.1872 69.972C98.0832 70.532 99.1472 70.812 100.379 70.812C101.742 70.812 102.825 70.5227 103.627 69.944C104.43 69.3467 104.962 68.5253 105.223 67.48H108.919C108.546 69.4587 107.613 71.0173 106.119 72.156C104.645 73.276 102.741 73.836 100.407 73.836ZM110.975 73.5V53.34H114.335V61.572C114.802 60.8067 115.436 60.2 116.239 59.752C117.042 59.2853 117.947 59.052 118.955 59.052C120.112 59.052 121.092 59.2947 121.895 59.78C122.698 60.2467 123.304 60.9467 123.715 61.88C124.144 62.7947 124.359 63.9427 124.359 65.324V73.5H121.027V65.632C121.027 64.4187 120.766 63.4947 120.243 62.86C119.739 62.2253 118.964 61.908 117.919 61.908C117.247 61.908 116.64 62.076 116.099 62.412C115.558 62.7293 115.128 63.196 114.811 63.812C114.494 64.4093 114.335 65.1467 114.335 66.024V73.5H110.975ZM132.044 73.836C130.905 73.836 129.925 73.612 129.104 73.164C128.301 72.6973 127.685 72.0067 127.256 71.092C126.827 70.1587 126.612 69.0107 126.612 67.648V59.388H129.972V67.312C129.972 68.5253 130.224 69.4493 130.728 70.084C131.251 70.7 132.035 71.008 133.08 71.008C133.752 71.008 134.349 70.8493 134.872 70.532C135.413 70.2147 135.833 69.7573 136.132 69.16C136.449 68.544 136.608 67.7973 136.608 66.92V59.388H139.968V73.5H137L136.748 71.148C136.319 71.9693 135.693 72.6227 134.872 73.108C134.069 73.5933 133.127 73.836 132.044 73.836ZM142.587 73.5V59.388H145.583L145.891 62.02C146.227 61.404 146.647 60.8813 147.151 60.452C147.655 60.004 148.243 59.6587 148.915 59.416C149.605 59.1733 150.361 59.052 151.183 59.052V62.608H150.007C149.447 62.608 148.915 62.6827 148.411 62.832C147.907 62.9627 147.468 63.1867 147.095 63.504C146.74 63.8027 146.46 64.2227 146.255 64.764C146.049 65.2867 145.947 65.9493 145.947 66.752V73.5H142.587ZM158.987 73.836C157.605 73.836 156.364 73.528 155.263 72.912C154.18 72.2773 153.331 71.4093 152.715 70.308C152.117 69.188 151.819 67.9187 151.819 66.5C151.819 65.0253 152.117 63.7373 152.715 62.636C153.331 61.516 154.18 60.6387 155.263 60.004C156.364 59.3693 157.615 59.052 159.015 59.052C160.769 59.052 162.244 59.5187 163.439 60.452C164.633 61.3667 165.399 62.6267 165.735 64.232H162.207C162.02 63.5227 161.628 62.9627 161.031 62.552C160.452 62.1413 159.761 61.936 158.959 61.936C158.268 61.936 157.633 62.1133 157.055 62.468C156.495 62.8227 156.047 63.336 155.711 64.008C155.393 64.68 155.235 65.492 155.235 66.444C155.235 67.172 155.328 67.816 155.515 68.376C155.701 68.936 155.963 69.412 156.299 69.804C156.653 70.1773 157.055 70.4667 157.503 70.672C157.951 70.8773 158.436 70.98 158.959 70.98C159.5 70.98 159.985 70.896 160.415 70.728C160.863 70.5413 161.236 70.2707 161.535 69.916C161.852 69.5613 162.076 69.1413 162.207 68.656H165.735C165.399 70.224 164.633 71.484 163.439 72.436C162.244 73.3693 160.76 73.836 158.987 73.836ZM167.854 73.5V53.34H171.214V61.572C171.681 60.8067 172.316 60.2 173.118 59.752C173.921 59.2853 174.826 59.052 175.834 59.052C176.992 59.052 177.972 59.2947 178.774 59.78C179.577 60.2467 180.184 60.9467 180.594 61.88C181.024 62.7947 181.238 63.9427 181.238 65.324V73.5H177.906V65.632C177.906 64.4187 177.645 63.4947 177.122 62.86C176.618 62.2253 175.844 61.908 174.798 61.908C174.126 61.908 173.52 62.076 172.978 62.412C172.437 62.7293 172.008 63.196 171.69 63.812C171.373 64.4093 171.214 65.1467 171.214 66.024V73.5H167.854Z" fill="#231722"/>
</svg>
