<svg width="512" height="512" viewBox="0 0 512 512" fill="none" xmlns="http://www.w3.org/2000/svg">
<rect width="512" height="512" fill="#FFFEF5"/>
<path d="M255.5 39.25V312.75M151 133.25H361" stroke="#231722" stroke-width="24"/>
<path d="M252.037 301.75C246.557 301.75 240.49 301.065 233.837 299.695C227.183 298.521 220.822 296.564 214.755 293.825C208.884 291.085 203.992 287.367 200.078 282.671C196.359 277.779 194.5 271.81 194.5 264.766C194.5 260.852 194.989 256.743 195.968 252.438C196.946 248.133 198.218 244.61 199.784 241.871H206.536C207.319 256.743 212.211 268.484 221.214 277.094C230.216 285.704 241.665 290.009 255.56 290.009C265.149 290.009 272.782 288.248 278.457 284.726C284.328 281.203 288.536 276.703 291.08 271.223C293.82 265.549 295.19 259.58 295.19 253.318C295.19 244.317 292.939 236.979 288.438 231.304C283.937 225.433 278.066 220.541 270.825 216.628C263.779 212.518 256.245 208.703 248.221 205.18C240.393 201.462 232.858 197.353 225.617 192.852C218.572 188.351 212.798 182.774 208.297 176.121C203.796 169.468 201.545 161.054 201.545 150.878C201.545 140.311 204.187 131.114 209.471 123.287C214.755 115.264 222.192 109.002 231.782 104.501C241.371 100 252.624 97.75 265.541 97.75C276.891 97.75 286.187 98.6306 293.428 100.392C300.865 102.153 306.834 103.914 311.335 105.675V148.236H304.584C303.409 135.713 299.691 126.124 293.428 119.471C287.166 112.818 277.185 109.491 263.486 109.491C253.896 109.491 246.068 111.056 240.001 114.187C234.13 117.123 229.825 121.036 227.085 125.928C224.541 130.625 223.268 135.615 223.268 140.898C223.268 148.726 225.519 155.183 230.02 160.271C234.521 165.359 240.295 169.761 247.34 173.479C254.581 177.197 262.214 180.915 270.237 184.633C278.457 188.351 286.09 192.656 293.135 197.549C300.376 202.441 306.247 208.507 310.748 215.747C315.249 222.987 317.5 232.185 317.5 243.338C317.5 255.471 314.662 265.94 308.987 274.746C303.507 283.356 295.777 290.009 285.796 294.705C276.011 299.402 264.758 301.75 252.037 301.75Z" fill="#CCC16E"/>
<mask id="mask0_28_32" style="mask-type:alpha" maskUnits="userSpaceOnUse" x="151" y="39" width="210" height="274">
<path d="M255.5 39.25V312.75M151 133.25H361" stroke="#231722" stroke-width="24"/>
</mask>
<g mask="url(#mask0_28_32)">
<rect x="243.5" y="51.75" width="24" height="201" fill="#231722"/>
</g>
<path d="M157.325 399.518C154.083 399.518 151.203 398.942 148.685 397.79C146.168 396.638 144.205 394.995 142.797 392.862C141.389 390.729 140.664 388.19 140.621 385.246H148.749C148.749 386.739 149.091 388.083 149.773 389.278C150.499 390.43 151.48 391.347 152.717 392.03C153.997 392.713 155.533 393.054 157.325 393.054C158.861 393.054 160.184 392.819 161.293 392.35C162.445 391.838 163.32 391.134 163.917 390.238C164.557 389.299 164.877 388.211 164.877 386.974C164.877 385.566 164.536 384.414 163.853 383.518C163.213 382.579 162.317 381.79 161.165 381.15C160.013 380.51 158.691 379.955 157.197 379.486C155.704 378.974 154.125 378.441 152.461 377.886C148.92 376.691 146.253 375.177 144.461 373.342C142.669 371.465 141.773 368.969 141.773 365.854C141.773 363.251 142.392 361.011 143.629 359.134C144.867 357.257 146.595 355.806 148.813 354.782C151.075 353.715 153.677 353.182 156.621 353.182C159.608 353.182 162.211 353.715 164.429 354.782C166.691 355.849 168.461 357.342 169.741 359.262C171.064 361.139 171.747 363.401 171.789 366.046H163.597C163.555 364.937 163.256 363.913 162.701 362.974C162.147 361.993 161.336 361.203 160.269 360.606C159.245 359.966 157.987 359.646 156.493 359.646C155.213 359.603 154.061 359.817 153.037 360.286C152.056 360.713 151.267 361.353 150.669 362.206C150.115 363.017 149.837 364.041 149.837 365.278C149.837 366.473 150.093 367.475 150.605 368.286C151.16 369.054 151.949 369.715 152.973 370.27C153.997 370.782 155.192 371.273 156.557 371.742C157.923 372.211 159.416 372.723 161.037 373.278C163.256 374.003 165.261 374.899 167.053 375.966C168.888 376.99 170.339 378.334 171.405 379.998C172.472 381.662 173.005 383.817 173.005 386.462C173.005 388.766 172.408 390.921 171.213 392.926C170.019 394.889 168.269 396.489 165.965 397.726C163.661 398.921 160.781 399.518 157.325 399.518ZM192.761 399.518C189.561 399.518 186.745 398.835 184.313 397.47C181.881 396.062 179.982 394.099 178.617 391.582C177.251 389.065 176.569 386.163 176.569 382.878C176.569 379.465 177.23 376.478 178.553 373.918C179.918 371.358 181.817 369.353 184.249 367.902C186.723 366.451 189.582 365.726 192.825 365.726C195.982 365.726 198.734 366.43 201.081 367.838C203.427 369.246 205.241 371.145 206.521 373.534C207.801 375.881 208.441 378.526 208.441 381.47C208.441 381.897 208.441 382.366 208.441 382.878C208.441 383.39 208.398 383.923 208.313 384.478H182.073V379.55H200.697C200.611 377.203 199.822 375.369 198.329 374.046C196.835 372.681 194.979 371.998 192.761 371.998C191.182 371.998 189.731 372.361 188.409 373.086C187.086 373.811 186.041 374.899 185.273 376.35C184.505 377.758 184.121 379.55 184.121 381.726V383.582C184.121 385.587 184.483 387.315 185.209 388.766C185.977 390.217 187.001 391.326 188.281 392.094C189.603 392.819 191.075 393.182 192.697 393.182C194.489 393.182 195.961 392.798 197.113 392.03C198.307 391.262 199.182 390.238 199.737 388.958H207.545C206.947 390.963 205.966 392.777 204.601 394.398C203.235 395.977 201.55 397.235 199.545 398.174C197.539 399.07 195.278 399.518 192.761 399.518ZM212.972 398.75V352.67H220.652V398.75H212.972ZM226.662 398.75V352.67H234.342V371.486C235.408 369.737 236.859 368.35 238.694 367.326C240.528 366.259 242.598 365.726 244.902 365.726C247.547 365.726 249.787 366.281 251.622 367.39C253.456 368.457 254.843 370.057 255.782 372.19C256.763 374.281 257.254 376.905 257.254 380.062V398.75H249.638V380.766C249.638 377.993 249.04 375.881 247.846 374.43C246.694 372.979 244.923 372.254 242.534 372.254C240.998 372.254 239.611 372.638 238.374 373.406C237.136 374.131 236.155 375.198 235.43 376.606C234.704 377.971 234.342 379.657 234.342 381.662V398.75H226.662ZM274.82 399.518C272.217 399.518 269.977 399.006 268.1 397.982C266.265 396.915 264.857 395.337 263.876 393.246C262.894 391.113 262.404 388.489 262.404 385.374V366.494H270.084V384.606C270.084 387.379 270.66 389.491 271.812 390.942C273.006 392.35 274.798 393.054 277.188 393.054C278.724 393.054 280.089 392.691 281.284 391.966C282.521 391.241 283.481 390.195 284.164 388.83C284.889 387.422 285.252 385.715 285.252 383.71V366.494H292.932V398.75H286.148L285.572 393.374C284.59 395.251 283.161 396.745 281.284 397.854C279.449 398.963 277.294 399.518 274.82 399.518ZM298.917 398.75V366.494H305.765L306.469 372.51C307.237 371.102 308.197 369.907 309.349 368.926C310.501 367.902 311.845 367.113 313.381 366.558C314.959 366.003 316.687 365.726 318.565 365.726V373.854H315.877C314.597 373.854 313.381 374.025 312.229 374.366C311.077 374.665 310.074 375.177 309.221 375.902C308.41 376.585 307.77 377.545 307.301 378.782C306.831 379.977 306.597 381.491 306.597 383.326V398.75H298.917ZM334.658 399.518C331.8 399.518 329.304 399.07 327.17 398.174C325.08 397.235 323.416 395.955 322.178 394.334C320.984 392.67 320.28 390.771 320.066 388.638H327.746C327.96 389.534 328.344 390.366 328.898 391.134C329.453 391.859 330.2 392.435 331.138 392.862C332.12 393.289 333.272 393.502 334.594 393.502C335.874 393.502 336.92 393.331 337.73 392.99C338.541 392.606 339.138 392.115 339.522 391.518C339.906 390.921 340.098 390.281 340.098 389.598C340.098 388.574 339.821 387.785 339.266 387.23C338.712 386.675 337.901 386.249 336.834 385.95C335.81 385.609 334.573 385.289 333.122 384.99C331.586 384.691 330.093 384.329 328.642 383.902C327.234 383.433 325.954 382.857 324.802 382.174C323.693 381.491 322.797 380.617 322.114 379.55C321.474 378.483 321.154 377.182 321.154 375.646C321.154 373.769 321.645 372.083 322.626 370.59C323.65 369.097 325.101 367.923 326.978 367.07C328.898 366.174 331.181 365.726 333.826 365.726C337.581 365.726 340.568 366.601 342.786 368.35C345.048 370.057 346.37 372.467 346.754 375.582H339.458C339.245 374.387 338.648 373.47 337.666 372.83C336.685 372.147 335.384 371.806 333.762 371.806C332.098 371.806 330.818 372.126 329.922 372.766C329.069 373.363 328.642 374.174 328.642 375.198C328.642 375.838 328.898 376.435 329.41 376.99C329.965 377.502 330.754 377.95 331.778 378.334C332.802 378.675 334.061 379.017 335.554 379.358C337.944 379.827 340.056 380.382 341.89 381.022C343.725 381.662 345.176 382.601 346.242 383.838C347.309 385.075 347.842 386.825 347.842 389.086C347.885 391.134 347.352 392.947 346.242 394.526C345.176 396.105 343.661 397.342 341.698 398.238C339.736 399.091 337.389 399.518 334.658 399.518ZM365.625 398.75C363.449 398.75 361.551 398.409 359.929 397.726C358.351 397.043 357.113 395.913 356.217 394.334C355.321 392.755 354.873 390.622 354.873 387.934V372.958H349.369V366.494H354.873L355.769 357.982H362.553V366.494H371.321V372.958H362.553V387.934C362.553 389.555 362.895 390.686 363.577 391.326C364.303 391.923 365.497 392.222 367.161 392.222H371.129V398.75H365.625ZM173.91 463.518C169.473 463.518 165.633 462.558 162.39 460.638C159.19 458.675 156.716 455.966 154.966 452.51C153.26 449.011 152.406 444.979 152.406 440.414C152.406 435.806 153.26 431.774 154.966 428.318C156.716 424.819 159.19 422.089 162.39 420.126C165.633 418.163 169.473 417.182 173.91 417.182C179.244 417.182 183.596 418.505 186.966 421.15C190.337 423.753 192.47 427.443 193.366 432.222H184.918C184.321 429.705 183.105 427.721 181.27 426.27C179.436 424.819 176.961 424.094 173.846 424.094C171.03 424.094 168.598 424.755 166.55 426.078C164.545 427.358 162.988 429.235 161.878 431.71C160.812 434.142 160.278 437.043 160.278 440.414C160.278 443.785 160.812 446.686 161.878 449.118C162.988 451.507 164.545 453.363 166.55 454.686C168.598 455.966 171.03 456.606 173.846 456.606C176.961 456.606 179.436 455.945 181.27 454.622C183.105 453.257 184.321 451.379 184.918 448.99H193.366C192.513 453.513 190.38 457.075 186.966 459.678C183.596 462.238 179.244 463.518 173.91 463.518ZM198.065 462.75V416.67H205.745V435.486C206.812 433.737 208.263 432.35 210.097 431.326C211.932 430.259 214.001 429.726 216.305 429.726C218.951 429.726 221.191 430.281 223.025 431.39C224.86 432.457 226.247 434.057 227.185 436.19C228.167 438.281 228.657 440.905 228.657 444.062V462.75H221.041V444.766C221.041 441.993 220.444 439.881 219.249 438.43C218.097 436.979 216.327 436.254 213.937 436.254C212.401 436.254 211.015 436.638 209.777 437.406C208.54 438.131 207.559 439.198 206.833 440.606C206.108 441.971 205.745 443.657 205.745 445.662V462.75H198.065ZM246.223 463.518C243.621 463.518 241.381 463.006 239.503 461.982C237.669 460.915 236.261 459.337 235.279 457.246C234.298 455.113 233.807 452.489 233.807 449.374V430.494H241.487V448.606C241.487 451.379 242.063 453.491 243.215 454.942C244.41 456.35 246.202 457.054 248.591 457.054C250.127 457.054 251.493 456.691 252.688 455.966C253.925 455.241 254.885 454.195 255.567 452.83C256.293 451.422 256.656 449.715 256.656 447.71V430.494H264.335V462.75H257.552L256.976 457.374C255.994 459.251 254.565 460.745 252.688 461.854C250.853 462.963 248.698 463.518 246.223 463.518ZM270.321 462.75V430.494H277.169L277.873 436.51C278.641 435.102 279.601 433.907 280.753 432.926C281.905 431.902 283.249 431.113 284.785 430.558C286.363 430.003 288.091 429.726 289.969 429.726V437.854H287.281C286.001 437.854 284.785 438.025 283.633 438.366C282.481 438.665 281.478 439.177 280.625 439.902C279.814 440.585 279.174 441.545 278.705 442.782C278.235 443.977 278.001 445.491 278.001 447.326V462.75H270.321ZM307.806 463.518C304.649 463.518 301.812 462.814 299.294 461.406C296.82 459.955 294.878 457.971 293.47 455.454C292.105 452.894 291.422 449.993 291.422 446.75C291.422 443.379 292.105 440.435 293.47 437.918C294.878 435.358 296.82 433.353 299.294 431.902C301.812 430.451 304.67 429.726 307.87 429.726C311.881 429.726 315.252 430.793 317.982 432.926C320.713 435.017 322.462 437.897 323.23 441.566H315.166C314.74 439.945 313.844 438.665 312.478 437.726C311.156 436.787 309.577 436.318 307.742 436.318C306.164 436.318 304.713 436.723 303.39 437.534C302.11 438.345 301.086 439.518 300.318 441.054C299.593 442.59 299.23 444.446 299.23 446.622C299.23 448.286 299.444 449.758 299.87 451.038C300.297 452.318 300.894 453.406 301.662 454.302C302.473 455.155 303.39 455.817 304.414 456.286C305.438 456.755 306.548 456.99 307.742 456.99C308.98 456.99 310.089 456.798 311.07 456.414C312.094 455.987 312.948 455.369 313.63 454.558C314.356 453.747 314.868 452.787 315.166 451.678H323.23C322.462 455.262 320.713 458.142 317.982 460.318C315.252 462.451 311.86 463.518 307.806 463.518ZM328.075 462.75V416.67H335.755V435.486C336.822 433.737 338.273 432.35 340.107 431.326C341.942 430.259 344.011 429.726 346.315 429.726C348.961 429.726 351.201 430.281 353.035 431.39C354.87 432.457 356.257 434.057 357.195 436.19C358.177 438.281 358.667 440.905 358.667 444.062V462.75H351.051V444.766C351.051 441.993 350.454 439.881 349.259 438.43C348.107 436.979 346.337 436.254 343.947 436.254C342.411 436.254 341.025 436.638 339.787 437.406C338.55 438.131 337.569 439.198 336.843 440.606C336.118 441.971 335.755 443.657 335.755 445.662V462.75H328.075Z" fill="#231722"/>
</svg>
