<svg width="95" height="124" viewBox="0 0 95 124" fill="none" xmlns="http://www.w3.org/2000/svg">
<path d="M47.1723 0V123.461M0 42.4325H94.796" stroke="#FFFEF5" stroke-width="10.8338"/>
<path d="M45.609 118.495C43.1354 118.495 40.3968 118.186 37.3931 117.568C34.3895 117.038 31.5183 116.154 28.7797 114.918C26.1294 113.681 23.9209 112.003 22.154 109.883C20.4755 107.674 19.6362 104.98 19.6362 101.8C19.6362 100.034 19.8571 98.1786 20.2988 96.2353C20.7405 94.292 21.3147 92.702 22.0215 91.4653H25.0693C25.4227 98.1786 27.6312 103.479 31.695 107.365C35.7588 111.252 40.9268 113.195 47.1992 113.195C51.528 113.195 54.9733 112.4 57.5353 110.81C60.1855 109.22 62.0849 107.189 63.2334 104.715C64.4702 102.154 65.0886 99.4595 65.0886 96.6328C65.0886 92.5695 64.0726 89.2569 62.0407 86.6953C60.0089 84.0453 57.3586 81.8369 54.0899 80.0703C50.9096 78.2153 47.5084 76.4928 43.8863 74.9028C40.3526 73.2244 36.9514 71.3694 33.6827 69.3378C30.5024 67.3061 27.8963 64.7886 25.8644 61.7853C23.8325 58.7819 22.8166 54.9836 22.8166 50.3902C22.8166 45.6202 24.0092 41.4686 26.3944 37.9352C28.7797 34.3136 32.1367 31.4869 36.4655 29.4552C40.7943 27.4235 45.874 26.4077 51.7046 26.4077C56.8285 26.4077 61.0248 26.8052 64.2935 27.6002C67.6505 28.3952 70.3449 29.1902 72.3768 29.9852V49.1977H69.329C68.799 43.5444 67.1204 39.2161 64.2935 36.2127C61.4665 33.2094 56.961 31.7077 50.777 31.7077C46.4482 31.7077 42.9145 32.4144 40.1759 33.8277C37.5256 35.1527 35.5821 36.9194 34.3453 39.1277C33.1968 41.2477 32.6226 43.5002 32.6226 45.8852C32.6226 49.4186 33.6386 52.3336 35.6704 54.6302C37.7023 56.9269 40.3084 58.9144 43.4888 60.5927C46.7574 62.2711 50.2028 63.9494 53.8249 65.6278C57.5353 67.3061 60.9806 69.2494 64.161 71.4578C67.4296 73.6661 70.0799 76.4044 72.1118 79.6728C74.1437 82.9411 75.1596 87.0928 75.1596 92.1278C75.1596 97.6045 73.8787 102.33 71.3167 106.305C68.8431 110.192 65.3536 113.195 60.8481 115.315C56.431 117.435 51.3513 118.495 45.609 118.495Z" fill="#CCC16E"/>
<mask id="mask0_77_142" style="mask-type:alpha" maskUnits="userSpaceOnUse" x="0" y="0" width="95" height="124">
<path d="M47.1723 0V123.461M0 42.4325H94.796" stroke="#231722" stroke-width="10.8338"/>
</mask>
<g mask="url(#mask0_77_142)">
<rect x="41.7554" y="5.64258" width="10.8338" height="90.7334" fill="#FFFEF5"/>
</g>
</svg>
