<svg width="512" height="512" viewBox="0 0 512 512" fill="none" xmlns="http://www.w3.org/2000/svg">
<rect width="512" height="512" fill="#231722"/>
<path d="M255.362 81.5315V430.468M122.039 201.459H389.961" stroke="#FFFEF5" stroke-width="30.6197"/>
<path d="M250.944 416.434C243.953 416.434 236.213 415.561 227.723 413.813C219.234 412.315 211.12 409.819 203.379 406.323C195.889 402.828 189.647 398.085 184.653 392.093C179.909 385.851 177.537 378.237 177.537 369.249C177.537 364.256 178.161 359.013 179.41 353.521C180.658 348.028 182.281 343.535 184.279 340.039H192.893C193.891 359.013 200.133 373.993 211.619 384.978C223.104 395.963 237.711 401.455 255.438 401.455C267.673 401.455 277.41 399.208 284.651 394.714C292.142 390.22 297.51 384.478 300.756 377.488C304.251 370.248 305.999 362.633 305.999 354.644C305.999 343.16 303.128 333.798 297.385 326.558C291.642 319.068 284.152 312.827 274.914 307.834C265.925 302.591 256.312 297.723 246.075 293.229C236.088 288.485 226.475 283.242 217.237 277.5C208.248 271.758 200.882 264.643 195.14 256.155C189.397 247.666 186.526 236.931 186.526 223.949C186.526 210.467 189.896 198.733 196.638 188.747C203.379 178.511 212.867 170.522 225.102 164.78C237.336 159.038 251.693 156.167 268.172 156.167C282.654 156.167 294.514 157.29 303.752 159.537C313.24 161.784 320.855 164.031 326.598 166.278V220.578H317.984C316.486 204.6 311.742 192.367 303.752 183.879C295.762 175.391 283.028 171.146 265.55 171.146C253.316 171.146 243.329 173.144 235.588 177.138C228.098 180.883 222.605 185.876 219.109 192.118C215.863 198.109 214.241 204.476 214.241 211.216C214.241 221.203 217.112 229.441 222.855 235.932C228.597 242.423 235.963 248.041 244.952 252.784C254.19 257.528 263.928 262.271 274.165 267.015C284.651 271.758 294.389 277.251 303.377 283.492C312.616 289.733 320.106 297.473 325.849 306.71C331.592 315.947 334.463 327.681 334.463 341.912C334.463 357.391 330.843 370.747 323.602 381.982C316.611 392.967 306.748 401.455 294.014 407.447C281.53 413.439 267.173 416.434 250.944 416.434Z" fill="#CCC16E"/>
<mask id="mask0_106_71" style="mask-type:alpha" maskUnits="userSpaceOnUse" x="122" y="81" width="268" height="350">
<path d="M255.362 81.5315V430.468M122.039 201.459H389.961" stroke="#231722" stroke-width="30.6197"/>
</mask>
<g mask="url(#mask0_106_71)">
<rect x="240.052" y="97.4792" width="30.6197" height="256.44" fill="#FFFEF5"/>
</g>
</svg>
