<svg width="960" height="720" viewBox="0 0 960 720" fill="none" xmlns="http://www.w3.org/2000/svg">
<path d="M953.353 378.753C967.297 448.454 961.381 552.108 915.537 608.876C869.693 665.822 756.457 716.302 678.501 719.895C600.334 723.488 521.955 633.666 446.746 630.612C371.536 627.738 299.073 708.937 227.033 702.29C155.204 695.464 33.5165 644.445 15.5592 590.552C-2.39815 536.479 122.035 450.61 119.712 378.753C117.176 306.896 -11.0599 222.643 0.770784 159.768C12.6015 96.8929 116.12 13.8978 190.484 1.32279C264.849 -11.2522 371.536 69.5872 446.746 84.8568C521.955 99.9468 577.095 74.7968 641.107 92.4018C705.12 110.007 778.85 142.522 830.821 190.128C882.792 237.913 939.199 309.051 953.353 378.753Z" fill="black"/>
</svg>
