<svg width="960" height="720" viewBox="0 0 960 720" fill="none" xmlns="http://www.w3.org/2000/svg">
<path d="M907.788 397.817C934.383 455.638 984.671 559.644 945.746 604.934C906.579 650.403 754.263 652.372 673.512 670.273C592.76 688.354 536.186 707.508 460.995 712.878C385.804 718.428 284.26 729.526 222.85 703.212C161.44 677.076 128.801 606.366 92.2935 555.527C55.5443 504.508 11.7837 454.206 3.07993 397.817C-5.86561 341.428 4.28879 270.897 38.6203 217.372C73.1936 163.669 139.681 111.755 210.036 76.1316C280.392 40.3291 389.43 -12.6585 460.995 2.73655C532.559 18.3106 585.265 126.255 639.422 168.86C693.82 211.465 742.175 220.236 786.902 258.366C831.63 296.675 881.435 339.996 907.788 397.817Z" fill="black"/>
</svg>
