<svg width="960" height="720" viewBox="0 0 960 720" fill="none" xmlns="http://www.w3.org/2000/svg">
<path d="M895.543 360.826C892.812 417.685 964.505 484.667 940.607 527.691C916.71 570.715 816.795 587.081 751.702 618.97C686.837 650.689 624.931 708.729 550.734 718.009C476.538 727.289 379.809 702.655 306.295 674.648C233.009 646.471 160.406 601.76 110.107 549.456C59.8078 497.153 -20.3063 412.961 4.72933 360.826C29.765 308.691 212.298 291.482 260.776 236.647C309.026 181.813 245.982 70.6253 294.46 31.6507C342.711 -7.15526 468.799 -1.25002 550.734 3.30546C632.669 8.02966 717.79 28.7824 785.386 59.4897C853.21 90.0282 938.787 136.595 957.222 186.874C975.43 237.153 898.274 303.967 895.543 360.826Z" fill="black"/>
</svg>
