<svg width="960" height="720" viewBox="0 0 960 720" fill="none" xmlns="http://www.w3.org/2000/svg">
<path d="M873.108 343.389C868.504 409.845 947.691 480.442 928.354 536.166C908.788 591.891 824.306 656.276 756.169 677.926C688.261 699.764 603.319 660.229 519.989 666.63C436.659 673.219 334.682 733.839 256.186 717.084C177.69 700.14 85.1514 628.225 48.7806 565.911C12.1797 503.598 42.7956 420.199 37.0407 343.389C31.2858 266.579 -26.0327 161.531 14.2514 104.676C54.7657 47.8221 195.184 14.3119 279.436 2.63985C363.687 -9.22048 448.168 22.0305 519.989 34.0791C591.81 45.9395 637.388 56.8585 709.9 74.1784C782.641 91.4982 928.354 93.0043 955.517 137.81C982.68 182.616 877.711 276.934 873.108 343.389Z" fill="black"/>
</svg>
