<svg width="960" height="720" viewBox="0 0 960 720" fill="none" xmlns="http://www.w3.org/2000/svg">
<path d="M954.368 349.712C951.562 406.293 948.756 462.223 916.107 516.528C883.458 570.995 833.975 645.135 758.474 676.027C682.719 706.757 565.642 696.676 462.849 701.391C360.056 706.106 206.759 738.949 141.716 704.318C76.6735 669.686 91.7226 552.46 72.5924 493.278C53.7173 434.258 38.6682 401.578 27.7002 349.712C16.7322 297.846 -13.366 239.639 6.78449 181.92C27.19 124.201 72.8475 21.7704 148.858 3.07267C224.869 -15.7876 368.728 57.8651 462.849 69.5714C556.969 81.2778 635.021 55.1011 713.582 72.9858C791.888 90.8706 893.151 130.542 933.197 176.555C973.498 222.73 957.173 293.131 954.368 349.712Z" fill="black"/>
</svg>
